<svg version="1.1" id="Layer_1" xmlns="http://www.w3.org/2000/svg" xmlns:xlink="http://www.w3.org/1999/xlink" x="0px" y="0px"
	 width="100%" viewBox="0 0 500 209" enable-background="new 0 0 500 209" xml:space="preserve">
<path fill="#FFFEFF" opacity="1.000000" stroke="none" 
	d="
M500.597961,52.926933 
	C501.000000,103.984177 500.960907,154.968445 501.089996,205.952301 
	C501.098389,209.270477 500.571869,210.102966 497.049896,210.100479 
	C333.100830,209.984970 169.151703,209.983170 5.202668,210.106415 
	C1.470609,210.109222 0.905414,209.185669 0.911638,205.705078 
	C1.031113,138.892685 1.033984,72.079964 0.905405,5.267611 
	C0.898564,1.712510 1.573202,0.896664 5.230006,0.899263 
	C169.012421,1.015645 332.794952,1.017528 496.577362,0.894587 
	C500.498871,0.891643 501.163940,1.957415 501.093567,5.576478 
	C500.850555,18.067760 501.000000,30.566675 501.000000,43.531342 
	C492.703186,44.635437 489.959686,51.349117 486.489471,57.263451 
	C485.226807,59.415440 483.935486,61.550251 482.631470,63.676929 
	C479.002502,69.595528 477.603241,69.584770 473.853363,63.507484 
	C471.233429,59.261429 468.494629,55.066357 466.210999,50.641560 
	C464.092773,46.537296 461.086823,44.885765 456.553589,45.289604 
	C453.583221,45.554214 450.560547,45.489864 447.578827,45.303982 
	C443.748138,45.065170 442.168396,46.537834 442.282745,50.486977 
	C442.480072,57.300125 442.397369,64.124580 442.297852,70.943024 
	C442.272095,72.707237 442.713928,75.062187 440.718872,75.809311 
	C438.693359,76.567841 437.536407,74.486145 436.428833,73.109474 
	C430.590790,65.853317 424.447815,58.848221 418.695251,51.522289 
	C417.359406,49.821068 416.014893,48.107849 414.325928,46.745087 
	C412.188080,45.020130 409.632935,44.957481 407.211609,45.727055 
	C404.652802,46.540306 405.489899,48.998535 405.358948,50.876797 
	C405.094116,54.676476 405.822693,58.528038 404.565430,62.629261 
	C403.958832,63.328899 403.487366,63.524742 402.568726,63.475952 
	C401.274689,62.849972 400.933685,61.893147 400.478271,61.009632 
	C394.839355,50.069733 385.691986,44.356701 373.557800,44.384300 
	C361.700073,44.411266 352.402679,49.526268 347.064392,60.638603 
	C346.703552,61.389755 346.247803,62.086674 345.384460,62.948521 
	C343.806519,63.383842 343.213593,62.500938 342.438538,61.286297 
	C341.320221,57.676311 341.908203,54.325863 341.673676,51.024738 
	C341.530884,49.015148 342.524933,46.284359 339.560669,45.586521 
	C336.551270,44.878056 333.597076,45.044750 331.701599,48.226887 
	C328.810303,53.080891 325.792175,57.859562 323.042267,62.797543 
	C320.696564,67.009766 318.227783,71.153297 315.614899,75.199394 
	C313.092743,79.104965 311.760986,79.091225 309.265717,75.049805 
	C304.202240,66.848854 299.341187,58.523647 294.338654,50.284599 
	C293.564697,49.009926 292.920929,47.609531 291.713806,46.675308 
	C289.391205,44.877773 286.653564,44.903221 284.104980,45.694935 
	C281.578400,46.479832 282.477173,48.997379 282.320007,50.873337 
	C282.127655,53.169853 282.617188,55.545010 281.162659,57.988701 
	C280.593964,58.260441 280.321869,58.263210 279.697632,58.048935 
	C273.632019,48.017113 264.659241,44.971943 253.900253,45.415855 
	C249.241379,45.608078 244.561356,45.602264 239.903778,45.406551 
	C235.746170,45.231850 234.344269,47.026852 234.399078,51.046082 
	C234.542191,61.543758 234.509354,72.045662 234.400299,82.544624 
	C234.377533,84.737579 235.180359,88.058914 232.537979,88.591125 
	C230.374924,89.026787 229.746841,85.745667 228.888092,83.882996 
	C223.795563,72.836746 218.926147,61.688671 213.963135,50.583824 
	C212.402908,47.092800 210.380249,45.382416 206.446167,45.386467 
	C202.396622,45.390633 200.040253,46.944786 198.425522,50.691593 
	C193.545746,62.014656 188.516617,73.275291 183.419189,84.503830 
	C183.005875,85.414291 182.660751,86.361954 182.154205,87.222290 
	C181.499481,88.334320 180.988266,90.034592 179.474884,89.775490 
	C177.642395,89.461754 177.752670,87.536087 177.673981,86.111961 
	C177.407242,81.284576 177.577682,76.448357 177.557617,71.615738 
	C177.527878,64.449257 177.495300,57.281765 177.569534,50.116432 
	C177.605255,46.669914 176.095718,45.414459 172.740341,45.406879 
	C169.335251,45.399181 167.312820,46.322388 167.429352,50.175720 
	C167.540085,53.836971 167.563187,57.511112 167.390884,61.173229 
	C167.155792,66.169312 166.107712,67.218552 161.004028,67.392403 
	C156.341171,67.551231 151.669388,67.542191 147.006042,67.397507 
	C141.695572,67.232758 140.762604,66.227211 140.585861,60.748989 
	C140.467621,57.084606 140.509079,53.415188 140.548309,49.750179 
	C140.583710,46.441383 138.845001,45.419754 135.839355,45.443802 
	C132.901443,45.467304 130.485687,45.818401 130.475525,49.618378 
	C130.436783,64.117950 130.459045,78.617371 130.461670,93.116875 
	C130.462326,96.746292 132.492966,97.530731 135.604126,97.568832 
	C138.881302,97.608963 140.605164,96.447090 140.556381,92.952255 
	C140.502914,89.121391 140.568695,85.286331 140.582367,81.453560 
	C140.596191,77.574951 142.283524,75.576996 146.295013,75.583443 
	C151.460999,75.591743 156.626740,75.539162 161.793259,75.606911 
	C165.466354,75.655075 167.300888,77.413643 167.384171,81.115105 
	C167.462921,84.615227 167.386948,88.115021 167.458115,91.613777 
	C167.568466,97.037552 168.008179,97.450333 173.587326,97.547813 
	C174.753677,97.568199 175.931290,97.449699 177.085480,97.569756 
	C183.712204,98.259094 189.309982,97.439133 191.319107,89.596146 
	C191.978317,87.022766 194.455063,85.790077 197.194931,85.683617 
	C203.191849,85.450615 209.190262,85.532349 215.189346,85.640503 
	C218.757690,85.704842 220.732239,87.799583 221.652023,90.901466 
	C223.250732,96.293015 226.776077,98.347984 232.196350,97.562073 
	C232.686035,97.491074 233.194962,97.552635 233.694962,97.552795 
	C243.631088,97.555969 243.715912,97.563576 244.584869,87.851311 
	C244.895569,84.378654 246.500610,82.860573 249.916199,82.596809 
	C255.093323,82.197006 259.671448,82.970787 262.194000,88.140450 
	C266.079437,96.103073 272.404663,98.367500 280.988983,97.764389 
	C293.667572,96.873627 292.484497,99.067909 292.555634,86.057442 
	C292.579346,81.724815 292.410248,77.388161 292.672760,73.061256 
	C292.760468,71.616058 292.663788,69.729813 294.366974,69.232971 
	C296.077515,68.733986 297.002228,70.363098 297.804016,71.572845 
	C301.027588,76.436615 303.794464,81.582283 306.899353,86.520142 
	C310.899811,92.882248 313.776978,92.860870 317.732452,86.428642 
	C320.874878,81.318497 323.611877,75.965248 326.924652,70.957512 
	C327.827637,69.592583 328.829071,67.657799 330.652496,68.208199 
	C332.437103,68.746872 332.330048,70.921043 332.373260,72.560783 
	C332.544586,79.058815 332.472229,85.560173 332.427765,92.059196 
	C332.405487,95.316170 333.091034,97.505646 337.049103,97.564667 
	C341.139709,97.625656 341.591766,95.300453 341.587067,92.095802 
	C341.581696,88.443802 341.173615,84.760353 342.215332,80.756775 
	C342.708710,79.894028 343.148010,79.593910 344.113098,79.504234 
	C347.496399,82.417038 348.794495,86.472404 351.719238,89.494789 
	C366.474670,104.742722 391.320343,100.902733 400.551300,81.805252 
	C400.841125,81.205704 401.146729,80.619865 401.860229,79.846596 
	C402.695496,79.444000 403.218964,79.445099 404.070618,79.844849 
	C406.239044,84.067444 405.274292,88.292137 405.325195,92.397430 
	C405.367401,95.801270 406.144104,97.698456 410.064850,97.657776 
	C414.074341,97.616188 414.688263,95.450035 414.632996,92.190880 
	C414.534210,86.365631 414.601929,80.537323 414.607941,74.710289 
	C414.609314,73.378593 414.563843,72.042961 414.704254,70.717560 
	C414.861572,69.232994 414.861603,67.495728 416.480957,66.861816 
	C418.180115,66.196671 419.247314,67.645744 420.237488,68.714951 
	C424.878967,73.726845 428.923248,79.239799 433.326385,84.453857 
	C436.118103,87.759689 438.769867,91.182671 441.592285,94.466583 
	C443.069153,96.184982 444.727478,97.349991 447.072388,97.531685 
	C451.263275,97.856400 452.527069,96.909363 452.568268,92.614517 
	C452.678406,81.127739 452.555847,69.639412 452.643921,58.152321 
	C452.659943,56.063496 452.018677,53.034016 454.279114,52.333668 
	C457.039001,51.478569 457.791107,54.748955 458.994873,56.560246 
	C461.112457,59.746456 462.751160,63.264137 464.992889,66.349678 
	C470.578949,74.038399 473.678833,82.324272 472.431335,91.982407 
	C471.988831,95.408318 472.931854,97.816406 477.223755,97.646103 
	C481.744507,97.466736 483.092499,96.830704 482.471283,91.982536 
	C481.155975,81.717422 485.452850,73.525764 490.926941,65.609909 
	C493.915955,61.287663 495.629120,56.029999 500.597961,52.926933 
z"/>
<path fill="#8E55FF" opacity="1.000000" stroke="none" 
	d="
M501.000000,52.550018 
	C496.668457,56.998989 494.902130,62.719093 491.436371,67.283257 
	C485.453278,75.162651 482.569122,83.850113 484.051819,93.764587 
	C484.647644,97.748703 483.404236,99.761772 479.042755,99.039551 
	C477.746368,98.824883 476.367188,98.868759 475.056000,99.033302 
	C471.926544,99.425980 470.724426,98.050438 471.207092,95.063362 
	C473.080475,83.469688 469.089874,73.640923 462.386444,64.470329 
	C459.607574,60.668743 457.433655,56.424953 454.013947,52.676929 
	C454.013947,65.904236 454.103149,79.132744 453.925049,92.357658 
	C453.895782,94.528717 455.615112,98.260262 452.402985,98.706772 
	C448.672974,99.225250 444.431061,100.527557 441.068878,96.160179 
	C433.472870,86.293152 425.345398,76.835266 417.461334,67.244072 
	C415.395020,68.115356 416.233521,69.667023 416.221527,70.789635 
	C416.136139,78.780075 416.050659,86.774796 416.238281,94.761742 
	C416.311829,97.892403 415.580872,99.194511 412.144897,99.075577 
	C401.979004,98.723686 404.090240,100.191269 403.859039,91.050217 
	C403.774872,87.722549 403.841309,84.391060 403.837433,80.601944 
	C401.694550,74.723892 402.367615,69.217041 403.578247,63.279671 
	C403.839508,57.859783 403.951538,52.858421 403.803284,47.864780 
	C403.724243,45.202141 404.386505,44.132145 407.359894,43.958260 
	C412.063629,43.683174 415.376495,44.936714 418.350708,48.889889 
	C424.553223,57.133831 431.318451,64.954948 437.875793,72.930618 
	C438.672607,73.899780 439.165070,75.262650 441.304443,75.573929 
	C441.304443,66.691498 441.527771,57.944218 441.207855,49.216846 
	C441.053680,45.010418 442.382812,43.706051 446.505890,43.995598 
	C452.138184,44.391132 458.847137,42.421688 463.168640,44.868111 
	C467.484192,47.311184 469.433624,53.943375 472.404419,58.748947 
	C474.231171,61.703918 476.028015,64.677399 478.267059,68.344879 
	C482.164429,61.913349 486.111877,56.229469 489.163818,50.099731 
	C491.602753,45.201263 494.819885,43.078556 500.565186,44.028091 
	C501.000000,46.700012 501.000000,49.400028 501.000000,52.550018 
z"/>
<path fill="#8E55FF" opacity="1.000000" stroke="none" 
	d="
M281.143799,58.352921 
	C281.235687,54.328835 281.338196,50.671967 281.284729,47.017376 
	C281.254242,44.933884 282.018616,44.140282 284.178711,44.020439 
	C289.032776,43.751122 292.733795,44.257290 295.471191,49.512993 
	C300.508240,59.183949 306.601746,68.304657 312.519623,78.092491 
	C318.742523,67.642357 324.677490,57.657970 330.632690,47.685677 
	C332.501007,44.557079 338.451904,42.773155 341.791107,44.179371 
	C343.521454,44.908054 343.033051,46.343124 343.057129,47.559269 
	C343.139435,51.714088 343.113586,55.871044 343.157715,60.491486 
	C344.941284,67.013031 344.825928,73.126213 343.487091,79.690430 
	C343.218597,85.110847 343.031189,90.116257 343.237091,95.105453 
	C343.363129,98.159645 342.385193,99.153656 339.297363,99.066284 
	C329.418365,98.786713 331.366333,99.995140 331.222473,91.294250 
	C331.097382,83.727112 331.196472,76.156273 330.088928,68.286598 
	C326.053009,75.068817 322.015137,81.849861 317.981750,88.633591 
	C314.053802,95.239952 310.618958,95.221779 306.551758,88.545280 
	C302.658630,82.154510 298.790558,75.748466 294.909027,69.345070 
	C292.837463,70.083717 293.658844,71.666229 293.646271,72.784683 
	C293.562012,80.282883 293.515076,87.783997 293.647003,95.280800 
	C293.694794,97.995720 292.981415,99.398453 290.015778,99.033081 
	C288.702545,98.871292 287.328217,98.839783 286.023438,99.032394 
	C274.076172,100.795967 264.156708,98.583008 259.022736,86.032249 
	C258.179108,83.969872 248.042358,82.738281 246.662949,84.334587 
	C245.238724,85.982788 246.037460,88.176041 246.019180,90.113304 
	C245.935318,99.006050 245.978973,99.006454 237.135223,99.006477 
	C235.968689,99.006485 234.763947,98.814400 233.641815,99.037613 
	C226.300064,100.497971 221.564514,98.007515 220.055649,90.360367 
	C219.550598,87.800697 217.935837,87.021004 215.357590,87.100960 
	C209.697037,87.276497 204.010849,87.416817 198.366913,87.063538 
	C194.500885,86.821564 192.272858,88.192558 191.573318,91.843315 
	C190.424744,97.837585 186.953384,99.879547 181.003784,99.098709 
	C177.235703,98.604187 173.343964,98.872429 169.519302,99.049309 
	C166.830002,99.173676 166.058929,98.086594 166.136337,95.543777 
	C166.283310,90.715500 166.031982,85.873619 166.228439,81.048882 
	C166.354187,77.961105 165.616806,76.480606 162.134308,76.644127 
	C156.647049,76.901779 151.134537,76.842308 145.641129,76.661583 
	C142.632446,76.562599 141.454636,77.543343 141.583313,80.643990 
	C141.783554,85.468422 141.474472,90.314552 141.691513,95.137520 
	C141.830948,98.236137 140.714340,99.066719 137.691055,99.080742 
	C128.845276,99.121788 128.845856,99.257126 128.845856,90.579445 
	C128.845856,76.747704 128.963791,62.914288 128.768372,49.085304 
	C128.715302,45.330334 129.520615,43.345032 133.654724,44.051270 
	C134.464325,44.189571 135.337112,44.186943 136.147812,44.051750 
	C140.468796,43.331196 142.159592,44.887451 141.723236,49.433784 
	C141.311157,53.726940 141.732712,58.093803 141.602432,62.422676 
	C141.524567,65.010345 142.512604,65.957649 145.098907,65.904037 
	C151.095642,65.779724 157.098267,65.784119 163.095261,65.902000 
	C165.574646,65.950737 166.248138,64.869217 166.202545,62.601871 
	C166.105438,57.771084 166.309418,52.931892 166.127472,48.106041 
	C166.017899,45.199696 166.755951,44.016857 169.975021,43.986904 
	C179.015335,43.902779 179.013885,43.744251 179.013885,52.805336 
	C179.013901,64.801338 179.013885,76.797348 179.013885,88.885284 
	C180.708984,88.881210 180.606628,87.453514 180.995163,86.587029 
	C186.714096,73.832954 192.696808,61.183380 197.926529,48.230270 
	C200.114029,42.812244 204.015244,44.454418 207.713120,44.035149 
	C211.157410,43.644638 213.027863,44.831882 214.460068,48.174831 
	C220.198853,61.569889 226.278610,74.818863 233.115997,87.957016 
	C233.115997,75.236252 233.305130,62.511158 233.013855,49.797066 
	C232.911377,45.324177 233.970383,43.599182 238.720398,43.982758 
	C247.165985,44.664757 255.706390,43.237057 264.135162,44.900383 
	C271.495575,46.352890 276.986053,50.169571 279.966980,57.648735 
	C282.515717,66.019615 281.800720,73.388268 275.041412,79.158905 
	C272.300751,81.498726 272.066498,83.586433 274.351105,86.294754 
	C276.371368,88.689728 277.700287,91.606987 280.591034,94.853600 
	C280.423004,82.192154 281.152649,70.470512 281.143799,58.352921 
z"/>
<path fill="#CC6FE7" opacity="1.000000" stroke="none" 
	d="
M13.900795,151.420853 
	C7.089625,147.372696 3.849922,141.514694 4.425721,134.155014 
	C4.957487,127.358154 8.772347,122.356834 15.316312,119.885742 
	C19.661358,118.244980 24.208847,118.158096 28.481960,119.917694 
	C31.477278,121.151108 32.183880,120.543869 32.137661,117.458160 
	C32.007919,108.795715 32.049137,100.129784 32.104847,91.465752 
	C32.163830,82.292526 38.250298,77.613449 46.932377,80.299843 
	C55.354481,82.905792 63.705177,85.759048 72.013077,88.712311 
	C78.566780,91.041992 80.731644,94.174286 80.757408,101.045532 
	C80.817390,117.040901 80.935478,133.038895 80.716110,149.031509 
	C80.564674,160.071045 72.857643,167.352493 62.306145,167.033722 
	C52.879986,166.748978 45.644287,158.551544 45.998940,148.559052 
	C46.406540,137.074753 58.416599,129.559479 70.075790,133.802505 
	C73.367493,135.000443 74.060387,134.500565 73.944466,131.159744 
	C73.748116,125.500702 73.784195,119.826996 73.938271,114.165321 
	C74.009605,111.544014 73.004768,110.342339 70.527901,109.551064 
	C61.177059,106.563789 51.873009,103.424538 42.599949,100.202591 
	C39.772472,99.220177 38.894314,99.748703 38.942616,102.877632 
	C39.107227,113.540245 39.037861,124.207092 38.996960,134.872101 
	C38.943615,148.781219 27.324656,156.615646 13.900795,151.420853 
z"/>
<path fill="#8F56FF" opacity="1.000000" stroke="none" 
	d="
M391.488159,149.873413 
	C395.657776,160.628372 391.680298,168.722824 380.918365,170.925034 
	C369.094208,173.344589 357.046173,171.550812 345.106323,171.982895 
	C342.806274,172.066101 342.998505,170.392548 342.998077,168.898392 
	C342.993561,152.600067 343.000732,136.301727 342.988708,120.003410 
	C342.987488,118.368057 343.138794,117.020660 345.320496,117.073769 
	C355.451630,117.320366 365.620544,116.354507 375.710724,117.602509 
	C382.051605,118.386780 387.767517,120.697510 389.960999,127.542747 
	C392.076721,134.145355 389.182526,139.144257 384.106537,143.372482 
	C386.904602,145.205048 389.802429,146.578857 391.488159,149.873413 
z"/>
<path fill="#8E55FF" opacity="1.000000" stroke="none" 
	d="
M402.398102,79.767426 
	C398.452087,91.825333 387.839325,99.589401 375.107971,99.941528 
	C360.621948,100.342186 350.045654,93.619110 344.900391,80.447853 
	C342.584015,74.660484 343.187561,69.143623 344.595276,63.250511 
	C349.701935,50.243885 359.702179,43.264847 373.158386,43.137669 
	C386.640808,43.010242 397.104126,49.915771 402.063477,62.523346 
	C404.461853,68.315498 403.824524,73.842911 402.398102,79.767426 
z"/>
<path fill="#9058FF" opacity="1.000000" stroke="none" 
	d="
M268.830322,138.861359 
	C272.929749,139.454224 274.404755,138.171707 274.104095,134.288574 
	C273.758301,129.822723 274.147064,125.304901 273.978668,120.818588 
	C273.877380,118.119919 274.602844,117.059868 277.554108,116.986153 
	C286.914307,116.752373 286.910950,116.618050 286.910919,126.001221 
	C286.910889,139.811951 286.827087,153.623566 286.972992,167.432755 
	C287.007050,170.658295 286.497009,172.169846 282.718445,172.111053 
	C274.027222,171.975830 274.139465,172.185684 273.975708,163.480957 
	C273.892303,159.048965 275.932953,153.371857 273.030273,150.527115 
	C270.377380,147.927200 264.788422,149.789536 260.498688,149.754562 
	C249.119827,149.661774 249.119324,149.723068 249.119324,161.183243 
	C249.119324,162.514389 249.139511,163.845901 249.116028,165.176636 
	C248.976212,173.096161 250.186752,171.592438 242.217300,172.116562 
	C237.384613,172.434387 236.058334,170.988754 236.169571,166.128311 
	C236.508362,151.326965 236.415848,136.511185 236.206940,121.705032 
	C236.153809,117.939377 237.247192,116.873795 240.985352,116.971550 
	C249.113770,117.184128 249.039505,116.979446 249.152023,125.211105 
	C249.210648,129.500626 247.339798,134.988083 249.943710,137.769730 
	C252.815140,140.837128 258.449890,138.473495 262.862152,138.836731 
	C264.680176,138.986404 266.520782,138.861496 268.830322,138.861359 
z"/>
<path fill="#8F57FF" opacity="1.000000" stroke="none" 
	d="
M302.873077,145.860336 
	C302.969025,148.990509 302.837769,151.633820 303.746002,154.232864 
	C305.625244,159.610443 309.100006,162.070786 315.118591,162.018112 
	C321.026733,161.966400 324.582367,159.309494 326.207947,153.899948 
	C327.584137,149.320328 326.954651,144.641174 327.030396,140.003815 
	C327.136475,133.512436 327.142670,127.016457 327.017639,120.525803 
	C326.968872,117.995178 327.736481,117.101219 330.399628,116.996902 
	C339.852814,116.626640 339.850067,116.514999 339.847992,125.933258 
	C339.846375,133.258774 339.916290,140.585297 339.821564,147.909637 
	C339.546753,169.154587 324.099091,175.134476 308.661072,172.402100 
	C297.279205,170.387634 290.509460,162.413071 290.129181,150.896149 
	C289.794220,140.750900 290.089050,130.586212 289.946930,120.432327 
	C289.910004,117.796127 290.829041,117.092659 293.396149,117.003754 
	C302.874878,116.675491 302.871307,116.575867 302.871490,125.902153 
	C302.871643,132.395233 302.872131,138.888306 302.873077,145.860336 
z"/>
<path fill="#CC6EE7" opacity="1.000000" stroke="none" 
	d="
M112.319992,54.249352 
	C119.183998,56.233521 123.057533,60.565750 123.390144,67.225983 
	C123.707214,73.575020 120.482117,78.184380 114.787872,81.221169 
	C107.309258,85.209595 99.385292,85.902267 91.157951,85.132050 
	C89.698189,84.995377 88.678589,84.306122 87.791107,83.261368 
	C82.663765,77.225395 78.608040,70.611015 77.190331,62.691181 
	C75.969521,55.871296 79.187782,49.078365 84.804474,46.174850 
	C89.870796,43.555847 97.399612,44.580276 101.598518,49.796520 
	C104.585396,53.507084 107.907089,54.087261 112.319992,54.249352 
z"/>
<path fill="#CD71E7" opacity="1.000000" stroke="none" 
	d="
M87.826202,135.953812 
	C88.446648,129.492294 91.195801,126.265991 97.475861,125.444710 
	C100.528229,125.045540 101.428452,123.980453 101.260300,121.109428 
	C101.075867,117.960541 101.005424,114.768471 101.307045,111.635834 
	C101.806206,106.451515 105.798302,104.268959 110.564735,106.322380 
	C115.136871,108.292099 118.770622,111.350098 121.215935,115.711227 
	C122.355881,117.744293 122.848099,119.936424 120.482445,121.419426 
	C118.291916,122.792641 116.787186,121.370369 115.464600,119.669670 
	C113.791985,117.518875 112.203934,113.665787 109.559265,114.712257 
	C107.636581,115.473030 108.096199,119.751106 108.108360,122.564316 
	C108.126328,126.722389 108.150528,130.881058 108.102715,135.038666 
	C108.029030,141.444763 104.309006,145.883133 98.632721,146.425079 
	C93.249405,146.939072 88.862495,142.863586 87.826202,135.953812 
z"/>
<path fill="#ECE2FF" opacity="1.000000" stroke="none" 
	d="
M280.922302,57.983070 
	C282.528717,71.010078 281.356110,84.052055 280.731750,97.645035 
	C277.328613,92.744499 273.927795,87.842346 270.520874,82.944443 
	C269.535736,81.528168 270.500488,80.858589 271.545868,80.219803 
	C279.746704,75.208611 281.756805,67.741920 280.070496,58.387928 
	C280.277771,57.978771 280.461914,57.980083 280.922302,57.983070 
z"/>
<path fill="#CE73E8" opacity="1.000000" stroke="none" 
	d="
M61.012070,57.770500 
	C58.370201,57.611382 58.178715,54.358620 54.918297,54.177006 
	C54.918297,57.763260 54.864197,61.173740 54.932602,64.581757 
	C55.010403,68.457947 53.358597,71.314461 49.460197,71.613731 
	C46.391453,71.849304 44.046619,69.728531 43.502689,66.599770 
	C42.829315,62.726433 45.146599,60.603848 48.693741,60.091721 
	C51.986423,59.616337 50.754303,57.278412 50.962986,55.541168 
	C51.295013,52.777039 49.957119,48.881260 54.854420,49.147881 
	C58.973789,49.372154 62.093369,53.719700 61.012070,57.770500 
z"/>
<path fill="#D8C4FF" opacity="1.000000" stroke="none" 
	d="
M344.624115,62.767433 
	C343.730103,68.341736 343.259552,73.795380 344.809448,79.675446 
	C344.457947,80.092323 344.109589,80.088112 343.500641,80.098083 
	C343.162170,74.036247 343.084229,67.960220 343.096375,61.419991 
	C343.588501,61.518875 343.990570,62.081963 344.624115,62.767433 
z"/>
<path fill="#C2A3FF" opacity="1.000000" stroke="none" 
	d="
M402.442505,80.115036 
	C403.205017,74.671356 403.689270,69.196381 402.127747,63.302193 
	C402.511993,62.899372 402.891663,62.920891 403.553528,62.900169 
	C403.896790,68.304535 403.957825,73.751137 403.927307,79.670158 
	C403.464081,80.122505 403.092377,80.102425 402.442505,80.115036 
z"/>
<path fill="#FDFBFF" opacity="1.000000" stroke="none" 
	d="
M245.977936,69.764091 
	C245.977249,67.634491 245.694351,65.914932 246.036804,64.330551 
	C246.720825,61.165829 243.787903,55.820564 247.702332,55.158737 
	C253.570374,54.166611 260.495087,52.737179 265.640625,57.930431 
	C270.252472,62.585037 267.911316,70.890282 261.592743,72.851295 
	C257.240021,74.202187 252.717377,73.721085 248.249466,73.735825 
	C245.670959,73.744324 246.028076,71.860802 245.977936,69.764091 
z"/>
<path fill="#F8F4FF" opacity="1.000000" stroke="none" 
	d="
M201.316376,68.283203 
	C202.860336,64.622086 204.238846,61.309078 206.145813,56.725986 
	C209.104019,63.753662 211.501816,69.505234 213.949249,75.235611 
	C214.861389,77.371239 213.925079,77.838470 211.972870,77.800026 
	C208.307999,77.727852 204.639832,77.730400 200.974747,77.796875 
	C198.582886,77.840256 197.401886,77.270187 198.683182,74.631012 
	C199.625809,72.689392 200.336746,70.635284 201.316376,68.283203 
z"/>
<path fill="#FEFEFF" opacity="1.000000" stroke="none" 
	d="
M360.108459,162.246246 
	C357.014526,162.535950 355.825104,161.728271 355.717407,158.750107 
	C355.363129,148.955795 355.233093,148.942749 365.190887,148.972549 
	C368.167114,148.981445 371.184662,148.837692 374.108551,149.269653 
	C377.895477,149.829117 380.586670,151.752609 380.249329,156.208450 
	C379.930176,160.424118 377.067841,161.821304 373.502838,162.042023 
	C369.212585,162.307617 364.898926,162.195389 360.108459,162.246246 
z"/>
<path fill="#FBF9FF" opacity="1.000000" stroke="none" 
	d="
M369.383789,139.723267 
	C367.454651,139.774170 365.961090,139.796005 364.467499,139.797913 
	C355.364746,139.809479 354.241241,138.340439 355.745483,129.168488 
	C356.087830,127.080879 357.159973,126.844559 358.780212,126.857582 
	C362.597076,126.888275 366.415741,126.836990 370.230591,126.937286 
	C374.057098,127.037895 377.367706,128.362305 377.718414,132.638672 
	C378.067841,136.899033 375.204468,138.812714 371.277435,139.365448 
	C370.786133,139.434586 370.305115,139.576660 369.383789,139.723267 
z"/>
<path fill="#FEFDFF" opacity="1.000000" stroke="none" 
	d="
M356.466064,71.160629 
	C357.834229,60.515614 363.424164,54.657345 372.444489,54.071381 
	C380.740448,53.532471 388.004547,58.710373 390.010437,66.592560 
	C392.659637,77.002686 386.922546,87.027313 377.046753,88.772263 
	C365.305054,90.846901 356.315460,82.744423 356.466064,71.160629 
z"/>
</svg>